PathFileType	4	(X/Y/Z)	/Users/itak/Documents/Research/Walk-IL/dataset/trc/00162_00008.trc
DataRate	CameraRate	NumFrames	NumMarkers	Units	OrigDataRate	OrigDataStartFrame	OrigNumFrames
100.000000	100.000000	4	53	mm	100.000000	0	617
Frame#	Time	RPSI			LPSI			L3			STRN			T10			C7			CLAV			RBAK			LBAK			LSHO			LUPA			LAEL			LAOL			LWTS			LWPS			LFRA			LIFD			LHPS			LHTS			RSHO			RUPA			RAEL			RAOL			RWTS			RWPS			RFRA			RIFD			RHTS			RHPS			RBHD			LFHD			RFHD			LBHD			LHIP			RHIP			RASI			LASI			LKNE			LTHI			LANK			LTIP			LTOE			LMT1			LMT5			LHEE			RKNE			RTHI			RANK			RTIP			RTOE			RMT1			RMT5			RHEE			
		X1	Y1	Z1	X2	Y2	Z2	X3	Y3	Z3	X4	Y4	Z4	X5	Y5	Z5	X6	Y6	Z6	X7	Y7	Z7	X8	Y8	Z8	X9	Y9	Z9	X10	Y10	Z10	X11	Y11	Z11	X12	Y12	Z12	X13	Y13	Z13	X14	Y14	Z14	X15	Y15	Z15	X16	Y16	Z16	X17	Y17	Z17	X18	Y18	Z18	X19	Y19	Z19	X20	Y20	Z20	X21	Y21	Z21	X22	Y22	Z22	X23	Y23	Z23	X24	Y24	Z24	X25	Y25	Z25	X26	Y26	Z26	X27	Y27	Z27	X28	Y28	Z28	X29	Y29	Z29	X30	Y30	Z30	X31	Y31	Z31	X32	Y32	Z32	X33	Y33	Z33	X34	Y34	Z34	X35	Y35	Z35	X36	Y36	Z36	X37	Y37	Z37	X38	Y38	Z38	X39	Y39	Z39	X40	Y40	Z40	X41	Y41	Z41	X42	Y42	Z42	X43	Y43	Z43	X44	Y44	Z44	X45	Y45	Z45	X46	Y46	Z46	X47	Y47	Z47	X48	Y48	Z48	X49	Y49	Z49	X50	Y50	Z50	X51	Y51	Z51	X52	Y52	Z52	X53	Y53	Z53	

1	0	-2136.605712890625	1053.27197265625	-24.36344146728516	-2123.49951171875	1051.6689453125	-147.6483001708984	-2129.36865234375	1090.017333984375	-84.01261138916016	-1870.43212890625	1298.5634765625	-73.10444641113281	-2163.25537109375	1246.424926757812	-96.12119293212891	-2098.607177734375	1517.124633789062	-108.7823257446289	-1897.900634765625	1411.728515625	-86.40059661865234	-2172.61572265625	1343.358032226562	0.5396040678024292	-2096.226806640625	1488.302734375	-210.3413543701172	-2012.02294921875	1474.835327148438	-281.6683044433594	-2032.714233398438	1341.180053710938	-356.1372985839844	-2005.063598632812	1121.442138671875	-367.7109069824219	-2065.17822265625	1106.74365234375	-304.7734069824219	-1892.0107421875	895.7966918945312	-305.6226196289062	-1961.659912109375	870.4580078125	-362.8175048828125	-1983.506103515625	1011.580444335938	-374.6786499023438	-1901.723754882812	747.1388549804688	-255.7966766357422	-1940.991088867188	800.576171875	-350.8255920410156	-1875.515258789062	814.4832153320312	-320.4969177246094	-2048.3720703125	1499.479248046875	77.68124389648438	-2071.41796875	1434.3134765625	148.2854461669922	-2082.175537109375	1145.381958007812	208.386962890625	-2088.034423828125	1136.445434570312	110.3931884765625	-1932.337280273438	922.6769409179688	186.2506256103516	-2005.872436523438	903.9287719726562	235.5271453857422	-2054.05908203125	1073.412353515625	226.2649841308594	-1911.309814453125	734.8314208984375	167.9546051025391	-1902.1318359375	829.6656494140625	197.151611328125	-1973.848999023438	821.907958984375	233.859619140625	-2045.359130859375	1678.825317382812	-32.12480163574219	-1864.834350585938	1726.313110351562	-144.5924682617188	-1877.614624023438	1727.59130859375	-16.11546897888184	-2037.817626953125	1684.736450195312	-169.5363616943359	-2006.84912109375	989.0989990234375	-254.5275115966797	-2008.719604492188	1007.652221679688	98.92113494873047	-1906.002075195312	1042.889282226562	65.61030578613281	-1888.468994140625	1027.214233398438	-191.6563568115234	-2000.0859375	495.6989135742188	-218.2833557128906	-1987.349853515625	637.3340454101562	-245.80810546875	-2098.321044921875	44.04716110229492	-232.3581695556641	-2046.6728515625	275.9553833007812	-238.6143798828125	-1877.7861328125	38.85657119750977	-218.1229248046875	-1926.520263671875	38.85014343261719	-166.8322448730469	-1992.6728515625	34.43568420410156	-276.9214477539062	-2145.448486328125	40.92788696289062	-159.5910797119141	-1988.939697265625	513.592529296875	97.93208312988281	-1944.739135742188	782.7316284179688	127.3756484985352	-2091.856201171875	38.06417465209961	100.3578796386719	-1982.918212890625	395.3670349121094	81.16551971435547	-1867.501342773438	38.61123275756836	73.79905700683594	-1921.777954101562	36.70123291015625	25.44752883911133	-1979.957275390625	34.43864059448242	139.3780670166016	-2139.169921875	36.48148727416992	31.68287658691406	
2	0.01	-2136.644775390625	1053.277709960938	-24.41959762573242	-2123.51708984375	1051.663452148438	-147.7071075439453	-2129.397216796875	1090.018798828125	-84.05344390869141	-1870.433959960938	1298.602294921875	-73.13615417480469	-2163.314453125	1246.457275390625	-96.19820404052734	-2098.64599609375	1517.102294921875	-108.9258651733398	-1897.915893554688	1411.7763671875	-86.48020172119141	-2172.642333984375	1343.369506835938	0.4577009975910187	-2096.235107421875	1488.269897460938	-210.4715270996094	-2012.028930664062	1474.780883789062	-281.7911071777344	-2032.677856445312	1341.102416992188	-356.2227172851562	-2005.018798828125	1121.393188476562	-367.7535705566406	-2065.14208984375	1106.696533203125	-304.8201904296875	-1891.9873046875	895.7361450195312	-305.6453552246094	-1961.5703125	870.3685302734375	-362.850341796875	-1983.4560546875	1011.534362792969	-374.7101440429688	-1901.619384765625	746.9986572265625	-255.8101806640625	-1940.978881835938	800.5319213867188	-350.817626953125	-1875.693481445312	814.3436279296875	-320.2008972167969	-2048.427978515625	1499.515747070312	77.57539367675781	-2071.461669921875	1434.383422851562	148.1929321289062	-2082.183837890625	1145.446044921875	208.4091491699219	-2088.064208984375	1136.575927734375	110.3336029052734	-1932.270874023438	922.7810668945312	186.3695678710938	-2005.753173828125	904.021728515625	235.6300811767578	-2054.01416015625	1073.519165039062	226.3393096923828	-1911.168212890625	734.967041015625	168.1051788330078	-1902.005615234375	829.8070678710938	197.2756652832031	-1973.764770507812	822.0089721679688	233.9493713378906	-2045.807983398438	1678.817993164062	-32.58527374267578	-1864.82666015625	1726.39111328125	-144.2968292236328	-1878.166137695312	1727.695678710938	-15.92057800292969	-2037.666870117188	1684.670043945312	-169.9615631103516	-2006.827758789062	989.0989990234375	-254.5466613769531	-2008.775390625	1007.660217285156	98.909423828125	-1906.054931640625	1042.899169921875	65.62162780761719	-1888.475830078125	1027.23095703125	-191.6496429443359	-2000.055541992188	495.6950378417969	-218.2918548583984	-1987.3037109375	637.3301391601562	-245.8119354248047	-2098.316162109375	44.05241012573242	-232.3629150390625	-2046.647216796875	275.9409790039062	-238.6197662353516	-1877.7861328125	38.85657119750977	-218.1229248046875	-1926.52001953125	38.84852600097656	-166.8316650390625	-1992.670532226562	34.43505859375	-276.9192504882812	-2145.449462890625	40.93249130249023	-159.5962371826172	-1988.955200195312	513.6044311523438	97.92872619628906	-1944.999389648438	782.5546264648438	127.4442825317383	-2091.856201171875	38.06088256835938	100.3590316772461	-1982.979614257812	395.3802795410156	81.18167877197266	-1867.498657226562	38.6110954284668	73.79883575439453	-1921.782958984375	36.70029830932617	25.4492130279541	-1979.954711914062	34.43908309936523	139.3789367675781	-2139.166259765625	36.48123168945312	31.67657089233398	
3	0.02	-2136.69384765625	1053.283447265625	-24.49290466308594	-2123.5380859375	1051.654174804688	-147.7854309082031	-2129.432373046875	1090.019897460938	-84.1053466796875	-1870.44189453125	1298.650390625	-73.17318725585938	-2163.388427734375	1246.49755859375	-96.29304504394531	-2098.6982421875	1517.074096679688	-109.108772277832	-1897.93359375	1411.835571289062	-86.57592010498047	-2172.6806640625	1343.387084960938	0.3513349294662476	-2096.244384765625	1488.22900390625	-210.6329040527344	-2012.031982421875	1474.71630859375	-281.9368286132812	-2032.6240234375	1341.007446289062	-356.3265686035156	-2004.963256835938	1121.333618164062	-367.8067321777344	-2065.09716796875	1106.641723632812	-304.8804626464844	-1891.956665039062	895.6651000976562	-305.6658020019531	-1961.4716796875	870.2677001953125	-362.8842468261719	-1983.393432617188	1011.47509765625	-374.7481689453125	-1901.493774414062	746.8074951171875	-255.8180389404297	-1940.964233398438	800.475341796875	-350.8052978515625	-1875.864135742188	814.186767578125	-319.908935546875	-2048.499267578125	1499.5615234375	77.44548034667969	-2071.520751953125	1434.468139648438	148.0770874023438	-2082.192138671875	1145.52734375	208.4346618652344	-2088.093017578125	1136.721557617188	110.2712020874023	-1932.190063476562	922.9114990234375	186.5152282714844	-2005.611694335938	904.1473999023438	235.7616424560547	-2053.958740234375	1073.654174804688	226.4274139404297	-1911.021484375	735.1422729492188	168.3043975830078	-1901.857055664062	829.9774780273438	197.4279479980469	-1973.650146484375	822.1382446289062	234.063720703125	-2046.359497070312	1678.796630859375	-33.14318084716797	-1864.829467773438	1726.4912109375	-143.9298706054688	-1878.852661132812	1727.8291015625	-15.66458606719971	-2037.485961914062	1684.594482421875	-170.4912872314453	-2006.801147460938	989.0977783203125	-254.5719604492188	-2008.850463867188	1007.671752929688	98.89569854736328	-1906.1240234375	1042.9140625	65.63453674316406	-1888.484008789062	1027.249145507812	-191.6397552490234	-2000.01904296875	495.6901245117188	-218.3001861572266	-1987.247192382812	637.3264770507812	-245.8169250488281	-2098.3115234375	44.05715179443359	-232.3688812255859	-2046.617065429688	275.9254150390625	-238.6264038085938	-1877.7861328125	38.85657119750977	-218.1229248046875	-1926.520141601562	38.84645462036133	-166.8300170898438	-1992.668212890625	34.43481826782227	-276.9168701171875	-2145.449462890625	40.93740844726562	-159.6019592285156	-1988.971435546875	513.6189575195312	97.92421722412109	-1945.244873046875	782.39990234375	127.5025100708008	-2091.85595703125	38.05858612060547	100.3597564697266	-1983.029418945312	395.3908386230469	81.19261932373047	-1867.494873046875	38.61064147949219	73.79839324951172	-1921.786010742188	36.69963073730469	25.45034599304199	-1979.953735351562	34.43865966796875	139.3796997070312	-2139.16162109375	36.48112106323242	31.66880035400391	
4	0.03	-2136.75146484375	1053.2880859375	-24.58205604553223	-2123.560302734375	1051.640991210938	-147.8824920654297	-2129.472412109375	1090.01953125	-84.16604614257812	-1870.45751953125	1298.705078125	-73.21260833740234	-2163.473876953125	1246.543579101562	-96.40120697021484	-2098.763427734375	1517.041748046875	-109.3236541748047	-1897.953002929688	1411.902587890625	-86.68183135986328	-2172.73095703125	1343.411254882812	0.2233632057905197	-2096.253173828125	1488.181762695312	-210.8178863525391	-2012.030029296875	1474.646240234375	-282.0955505371094	-2032.551635742188	1340.900756835938	-356.4427795410156	-2004.8994140625	1121.266845703125	-367.8678283691406	-2065.044921875	1106.583129882812	-304.95263671875	-1891.92236328125	895.589599609375	-305.6789855957031	-1961.374267578125	870.1646118164062	-362.9150695800781	-1983.321044921875	1011.40478515625	-374.7901916503906	-1901.361572265625	746.5697021484375	-255.8155364990234	-1940.947875976562	800.4080810546875	-350.7881774902344	-1876.004028320312	814.0267944335938	-319.6571960449219	-2048.584228515625	1499.614990234375	77.29811096191406	-2071.59521484375	1434.562866210938	147.943115234375	-2082.198974609375	1145.622924804688	208.4615783691406	-2088.1162109375	1136.866577148438	110.2156219482422	-1932.099609375	923.0631103515625	186.6796112060547	-2005.457397460938	904.3038330078125	235.9165191650391	-2053.896484375	1073.811157226562	226.5225524902344	-1910.889892578125	735.3496704101562	168.5487060546875	-1901.696411132812	830.1672973632812	197.6002807617188	-1973.5068359375	822.2899780273438	234.1972351074219	-2046.984008789062	1678.75634765625	-33.76622772216797	-1864.848999023438	1726.609497070312	-143.5099487304688	-1879.639770507812	1727.986206054688	-15.3552417755127	-2037.285766601562	1684.514892578125	-171.0986480712891	-2006.77001953125	989.0947875976562	-254.6030426025391	-2008.9404296875	1007.688903808594	98.88307952880859	-1906.20703125	1042.933959960938	65.64746856689453	-1888.491943359375	1027.266845703125	-191.6266784667969	-1999.979248046875	495.6845397949219	-218.3071899414062	-1987.18310546875	637.3236083984375	-245.8226165771484	-2098.307861328125	44.06134033203125	-232.3756561279297	-2046.584716796875	275.9102172851562	-238.6342620849609	-1877.7861328125	38.85657119750977	-218.1229248046875	-1926.5205078125	38.8440055847168	-166.8270263671875	-1992.666015625	34.43460845947266	-276.9144897460938	-2145.448486328125	40.94242095947266	-159.6076812744141	-1988.987060546875	513.6353759765625	97.91854095458984	-1945.444580078125	782.2911376953125	127.5430374145508	-2091.85546875	38.05795669555664	100.3598480224609	-1983.0576171875	395.397216796875	81.19490814208984	-1867.490600585938	38.60967254638672	73.79775238037109	-1921.785766601562	36.69945907592773	25.45057106018066	-1979.953857421875	34.43772125244141	139.3802185058594	-2139.156494140625	36.48141860961914	31.66050720214844	
